<?xml version="1.0" encoding="utf-8"?>
<!-- Generator: Adobe Illustrator 19.2.1, SVG Export Plug-In . SVG Version: 6.00 Build 0)  -->
<!DOCTYPE svg PUBLIC "-//W3C//DTD SVG 1.1//EN" "http://www.w3.org/Graphics/SVG/1.1/DTD/svg11.dtd">
<svg version="1.1" id="Capa_1" xmlns="http://www.w3.org/2000/svg" xmlns:xlink="http://www.w3.org/1999/xlink" x="0px" y="0px"
	 viewBox="0 0 68.2 87.6" style="enable-background:new 0 0 68.2 87.6;" xml:space="preserve">
<style type="text/css">
	.st0{clip-path:url(#SVGID_2_);}
	.st1{fill:#808080;}
	.st2{fill:#B3B3B3;}
	.st3{fill:#FFFFFF;}
	.st4{fill:#F2F2F2;}
	.st5{fill-rule:evenodd;clip-rule:evenodd;fill:#F2F2F2;}
	.st6{fill:#FDDDB9;}
	.st7{fill-rule:evenodd;clip-rule:evenodd;fill:#1D2938;}
	.st8{fill:#E9B896;}
	.st9{fill:#E3E8E8;}
	.st10{fill-rule:evenodd;clip-rule:evenodd;fill:#21455D;}
	.st11{fill:#21455D;}
	.st12{fill:#293546;}
	.st13{fill:#F5D2AF;}
	.st14{fill:#515166;}
	.st15{fill:#E5916A;}
	.st16{fill:#F7C8A0;}
	.st17{fill:#727373;}
	.st18{fill:#00517D;}
	.st19{fill:#856314;}
	.st20{fill-rule:evenodd;clip-rule:evenodd;fill:#FAFAFA;}
	.st21{clip-path:url(#SVGID_4_);}
	.st22{fill:#878787;}
	.st23{fill:#4D4D4D;}
	.st24{fill:#313131;}
	.st25{fill:#525252;}
	.st26{fill:#A8A8A8;}
	.st27{fill:#4A7628;}
	.st28{fill:#77BC1F;}
	.st29{fill:#007934;}
	.st30{fill:#00953A;}
	.st31{fill:#4E5A30;}
	.st32{fill:#7A9C49;}
	.st33{fill:#D25E15;}
	.st34{clip-path:url(#SVGID_6_);}
	.st35{fill:#C81A74;}
	.st36{fill:#A31B5C;}
	.st37{opacity:0.2;}
	.st38{fill:#919191;}
	.st39{fill:#087B35;}
	.st40{fill:#078E38;}
	.st41{fill:#D61052;}
	.st42{fill:#E20717;}
	.st43{fill:#F29107;}
	.st44{fill:#056734;}
	.st45{fill:#E8501D;}
	.st46{fill:#F9B233;}
	.st47{fill:#F6A44B;}
	.st48{fill:#D88219;}
	.st49{fill:#EB6209;}
	.st50{fill:#312251;}
	.st51{fill:#145A2A;}
	.st52{fill:#A3897A;}
	.st53{fill:#3E9C36;}
	.st54{fill:#BE1823;}
	.st55{opacity:0.3;}
	.st56{clip-path:url(#SVGID_8_);}
	.st57{fill:#E6E6E6;}
	.st58{fill:#9A9999;}
	.st59{fill:#808081;}
	.st60{fill:#676767;}
	.st61{fill:#4E4E4E;}
	.st62{fill:#CDCCCC;}
	.st63{fill:#B4B4B4;}
	.st64{fill:#46AC34;}
	.st65{fill:#FFFFFE;}
</style>
<g>
	<g>
		<path class="st3" d="M53.9,4.5c-0.6-3.1-3.8-5-6.9-4.4l-42.3,9c-3.1,0.7-5.2,3.7-4.5,6.8l14.3,67.3c0.6,3.1,3.7,5,6.9,4.4l42.3-9
			c3.1-0.7,5.2-3.7,4.5-6.8L53.9,4.5z"/>
		<path class="st28" d="M45.6,3L7.1,11.2c-2.8,0.6-4.7,3.4-4.1,6.2L11,54.7c9.2-10.8,27.5-20,45.9-23.9l-5-23.6
			C51.2,4.3,48.4,2.4,45.6,3z"/>
		<path class="st28" d="M13.3,65.5l3.2,15.2c0.6,2.8,3.4,4.7,6.2,4.1l38.4-8.1c2.8-0.6,4.7-3.4,4.1-6.2l-7.9-37.2
			C36.1,37.9,17.3,51.4,13.3,65.5z"/>
		<path class="st3" d="M56.8,61.4c0.1-0.1,0.2-0.2,0.5-0.2l0-0.3l-5.1,1l-0.4,1.5c-0.1,0.3-0.1,0.6-0.2,0.9c-0.1,0.5-0.3,1-0.4,1.5
			c-0.2,0.6-0.3,1.1-0.5,1.7c-0.1-0.1-0.2-0.2-0.3-0.5c-0.2-0.2-0.4-0.5-0.6-0.8c-0.2-0.3-0.4-0.6-0.7-0.9c-0.1-0.1-0.2-0.3-0.3-0.4
			l0,0l-0.2-0.3c0-0.1-0.1-0.1-0.1-0.2c-0.1-0.1-0.2-0.2-0.2-0.3L47.2,63l-4.9,1l0.1,0.3c0.3,0,0.5,0,0.5,0c0.1,0,0.1,0.1,0.1,0.2
			l2,9.8c0,0.1,0,0.2-0.1,0.3c-0.1,0.1-0.2,0.2-0.5,0.2l0.1,0.3l3.9-0.8l0-0.3c-0.3,0-0.5,0-0.5,0c-0.1-0.1-0.1-0.1-0.1-0.2L46,65.9
			l0,0l5.5,7.5l2.3-9l0.1,0l1.5,7.7c0,0.1,0,0.2,0,0.3c-0.1,0.1-0.2,0.2-0.5,0.2l0,0.2l4.4-0.9l0-0.3c-0.3,0-0.5,0-0.5,0
			c-0.1-0.1-0.1-0.1-0.1-0.2l-2-9.8C56.7,61.6,56.8,61.5,56.8,61.4z"/>
		<path class="st3" d="M37.7,74.4c-1.8,0.4-3.5-1-3.9-3c-0.4-2,0.7-3.9,2.5-4.2c1.8-0.4,3.5,1,3.9,3c0.1,0.7,0.1,1.5-0.1,2.1
			c-0.3-0.3-0.7-0.6-1.1-0.9c-1.3-0.7-3-0.6-3.9,0.4c-0.1,0.1-0.3,0.3-0.2,0.4c0.1,0.1,1-0.6,2.5,0.3c0.7,0.4,1.2,0.8,1.6,1.3
			C38.7,74,38.2,74.2,37.7,74.4z M45.6,76.1c-0.1-0.1-1,0.6-2.5-0.3c-0.7-0.4-1.1-0.8-1.6-1.3c1.5-1.3,2.2-3.2,1.8-5.1
			c-0.6-3-3.9-4.9-7.5-4.2C32.4,66,30,69,30.6,72c0.6,3,3.9,4.9,7.5,4.2c0.7-0.1,1.4-0.4,2-0.7c0.3,0.5,0.8,1,1.5,1.4
			c1.2,0.7,3,0.6,3.9-0.4C45.5,76.3,45.8,76.1,45.6,76.1z"/>
		<path class="st3" d="M21.4,75.1l0.2,0.1c0,0.1,0,0.2,0.1,0.4c0,0.1,0.2,0.3,0.4,0.4c0.3,0.1,0.6,0.2,1,0.3
			c0.4,0.1,0.8,0.1,1.3,0.1c0.5,0,1,0,1.4-0.1c0.9-0.2,1.6-0.4,1.9-0.8c0.4-0.3,0.5-0.7,0.4-1.2c0-0.3-0.3-0.4-0.7-0.4
			c-0.4,0-0.9,0-1.4,0c-0.6,0.1-1.2,0.1-1.8,0.2c-0.7,0.1-1.3,0-1.9-0.1c-0.6-0.1-1.1-0.3-1.6-0.6c-0.4-0.3-0.7-0.8-0.9-1.5
			c-0.1-0.5-0.1-1,0-1.5c0.1-0.5,0.3-0.9,0.7-1.3c0.3-0.4,0.7-0.7,1.3-1c0.5-0.3,1.1-0.5,1.8-0.6c0.6-0.1,1.2-0.2,1.8-0.2
			c0.6,0,1,0,1.5,0c0.4,0,0.8,0.1,1.1,0.1c0.3,0,0.5,0,0.6,0l0,2.8l-0.2-0.1l0-0.2c0-0.1-0.2-0.2-0.4-0.3c-0.3-0.1-0.6-0.1-1-0.2
			c-0.4,0-0.8,0-1.3,0c-0.5,0-0.9,0.1-1.3,0.2c-0.8,0.2-1.3,0.4-1.6,0.6c-0.3,0.3-0.4,0.5-0.3,0.8c0.1,0.2,0.2,0.4,0.4,0.5
			c0.2,0.1,0.5,0.1,0.9,0.1c0.4,0,0.8-0.1,1.2-0.1c0.5-0.1,0.9-0.1,1.4-0.1c0.5,0,1,0,1.4,0c0.5,0,0.9,0.1,1.3,0.3
			c0.4,0.2,0.8,0.4,1,0.8c0.3,0.4,0.5,0.8,0.6,1.4c0.1,0.5,0.1,0.9,0,1.4c-0.1,0.5-0.3,0.9-0.6,1.4c-0.3,0.4-0.8,0.8-1.4,1.2
			c-0.6,0.3-1.4,0.6-2.4,0.8c-0.8,0.2-1.4,0.2-2,0.3c-0.6,0-1.1,0-1.5,0c-0.4,0-0.7-0.1-1-0.1c-0.2-0.1-0.6-0.1-0.7-0.1L21.4,75.1z"
			/>
		<path class="st3" d="M51.3,50.3c-0.4-2-1.7-3.6-3.3-4.6l1.9-5.3c0.4-1.1,0.1-2.7-0.7-3.5l-8.6-9c-0.8-0.8-2.4-1.3-3.6-1.1
			l-12.7,2.7c-1.2,0.2-2.5,1.3-2.9,2.4l-4.2,11.7c-0.4,1.1-0.1,2.7,0.7,3.5l8.6,9c0.8,0.8,2.4,1.3,3.6,1.1l8-1.7
			c1.5,2.6,4.6,4,7.7,3.4C49.6,58,52.1,54.2,51.3,50.3z"/>
		<path class="st3" d="M36.9,26.3L24.1,29c-1.4,0.3-2.8,1.5-3.3,2.8l-4.2,11.7c-0.5,1.3-0.1,3.1,0.9,4.1l8.6,9
			c0.9,1,2.8,1.5,4.2,1.2c0,0,6.1-1.3,7.6-1.6c1.8,2.6,4.9,3.9,8,3.3c2-0.4,3.8-1.6,4.9-3.4c0.8-1.3,1.3-2.8,1.3-4.3
			c0-0.5-0.1-1.1-0.2-1.6c-0.4-1.9-1.6-3.5-3.2-4.7c0.2-0.6,1.8-4.9,1.8-4.9c0.1-0.4,0.2-0.8,0.2-1.2c0-1.1-0.4-2.2-1.1-2.9l-8.6-9
			C40.1,26.5,38.3,26,36.9,26.3z M26.9,55.7l-8.6-9c-0.6-0.7-0.9-2-0.6-2.9l4.2-11.7c0.3-0.9,1.4-1.8,2.4-2c0,0,12.8-2.7,12.8-2.7
			c1-0.2,2.4,0.2,3,0.9l8.6,9c0.6,0.7,0.9,2,0.6,2.9c0,0-2.1,5.7-2.1,5.7l0.4,0.3c1.6,1,2.6,2.5,3,4.2l0,0c0.4,1.7,0,3.5-0.9,5
			c-1,1.5-2.4,2.5-4.2,2.9c-2.7,0.6-5.6-0.7-7-3.1l-0.2-0.4L30,56.6C29,56.8,27.6,56.4,26.9,55.7z M51.9,50.2L51.9,50.2L51.9,50.2
			L51.9,50.2z"/>
		<path class="st27" d="M30.1,57.2c-1.2,0.3-2.8-0.2-3.6-1.1l-8.6-9c-0.8-0.8-1.1-2.4-0.7-3.5L21.4,32c0.4-1.1,1.7-2.2,2.9-2.4
			L37,26.9c1.2-0.3,2.8,0.2,3.6,1.1l8.6,9c0.8,0.8,1.1,2.4,0.7,3.5l-4.2,11.7c-0.4,1.1-1.7,2.2-2.9,2.4L30.1,57.2z"/>
		<ellipse transform="matrix(0.9783 -0.2072 0.2072 0.9783 -9.7735 10.288)" class="st28" cx="44.2" cy="51.8" rx="7.2" ry="7.2"/>
		<path class="st3" d="M42.3,49.4c2.8-2.6,4.2-6.3,3.5-9.9c-1.3-5.9-7.8-9.5-14.5-8.1c-6.8,1.4-11.3,7.4-10,13.3
			c1.3,5.9,7.8,9.5,14.5,8.1c1-0.2,1.9-0.5,2.8-0.9c0.7,0.9,1.4,1.7,2.3,2.5c0.4,0.4,0.9,0.6,1.3,0.8c2.8,1.2,5.7,0,6.8-2.5
			C46.6,52.9,43.9,51.8,42.3,49.4z M35,49.1c-3.4,0.7-6.8-1.9-7.6-5.7c-0.8-3.9,1.2-7.6,4.6-8.3c3.4-0.7,6.8,1.8,7.6,5.7
			c0.3,1.3,0.2,2.7-0.1,3.8c-0.9-1.1-1.9-2-3-2.6c-2.8-1-5.6,0.1-6.8,2.5c0.4,0,0.7,0,1.1,0c2.5,0.1,4.6,1.6,5.9,3.9
			C36.2,48.7,35.6,48.9,35,49.1z"/>
	</g>
	<path class="st65" d="M12.8,17.4c-0.1-0.4-0.2-0.6-0.5-0.8c-0.3-0.2-0.6-0.2-1-0.1L8.8,17l-0.1,0l0,0.1l0.7,3.4l0,0.1l0.1,0
		l0.5-0.1l0.1,0l0-0.1l-0.2-1.2l1.8-0.4c0.4-0.1,0.7-0.3,0.9-0.5C12.8,18.1,12.9,17.7,12.8,17.4z M12,17.9c-0.1,0.1-0.2,0.2-0.4,0.2
		c0,0-1.4,0.3-1.8,0.4l-0.2-0.8l1.8-0.4c0.2,0,0.4,0,0.5,0c0.1,0.1,0.1,0.1,0.2,0.3C12,17.7,12,17.8,12,17.9z"/>
	<path class="st65" d="M17,17.4c-0.1-0.5-0.4-0.9-0.9-1.1c-0.4-0.2-0.9-0.2-1.4-0.1c-0.5,0.1-0.9,0.3-1.2,0.7
		c-0.4,0.4-0.5,0.9-0.4,1.4c0.1,0.5,0.4,0.9,0.9,1.1c0.4,0.2,0.9,0.2,1.4,0.1c0.5-0.1,0.9-0.3,1.2-0.7C17,18.4,17.1,17.9,17,17.4z
		 M16,18.3c-0.2,0.2-0.4,0.4-0.8,0.4c-0.3,0.1-0.7,0-0.9-0.1c-0.2-0.1-0.4-0.3-0.4-0.6c-0.1-0.3,0-0.5,0.2-0.7
		c0.2-0.2,0.4-0.4,0.8-0.4c0.3-0.1,0.6,0,0.9,0.1c0.2,0.1,0.4,0.3,0.4,0.6C16.3,17.9,16.2,18.1,16,18.3z"/>
	<polygon class="st65" points="21.4,14.8 20.9,15 20.8,15 20.8,15.1 20.6,17.2 19.7,15.3 19.6,15.2 19.5,15.3 18.9,15.4 18.8,15.4 
		18.8,15.5 18.6,17.6 17.7,15.7 17.6,15.6 17.5,15.7 17,15.8 16.8,15.8 16.9,16 18.4,18.7 18.5,18.8 18.6,18.7 19.2,18.6 19.3,18.6 
		19.3,18.5 19.4,16.4 20.4,18.2 20.4,18.3 20.5,18.3 21.2,18.2 21.3,18.2 21.3,18.1 21.6,15 21.6,14.8 	"/>
	<polygon class="st65" points="25.8,17.1 25.6,16.6 25.6,16.4 25.5,16.5 23.2,17 23.1,16.5 24.6,16.2 24.7,16.1 24.7,16 24.6,15.5 
		24.5,15.4 24.4,15.4 22.9,15.7 22.8,15.3 25,14.9 25.2,14.9 25.1,14.7 25,14.2 25,14.1 24.9,14.1 22,14.7 21.9,14.8 21.9,14.9 
		22.5,17.8 22.5,17.9 22.7,17.9 25.7,17.2 25.8,17.2 	"/>
	<path class="st65" d="M29.7,16.2l-0.9-0.8c0.4-0.2,0.5-0.6,0.4-1.1c-0.1-0.3-0.2-0.5-0.5-0.7c-0.2-0.1-0.5-0.2-0.8-0.1l-2.2,0.5
		l-0.1,0l0,0.1l0.6,2.9l0,0.1l0.1,0l0.5-0.1l0.1,0l0-0.1l-0.2-0.9l1.2-0.2l0.9,0.9l0,0l0.1,0l0.6-0.1l0.2-0.1L29.7,16.2z M28.1,14.8
		c0,0-1.1,0.2-1.5,0.3l-0.1-0.5l1.5-0.3c0.2,0,0.3,0,0.3,0c0.1,0,0.1,0.1,0.1,0.2C28.5,14.6,28.4,14.7,28.1,14.8z"/>
	<polygon class="st65" points="33.5,15.4 33.3,14.9 33.3,14.8 33.2,14.8 30.9,15.3 30.8,14.8 32.3,14.5 32.4,14.5 32.4,14.4 
		32.3,13.9 32.2,13.7 32.1,13.8 30.6,14.1 30.5,13.7 32.7,13.3 32.9,13.2 32.8,13.1 32.7,12.6 32.7,12.5 32.6,12.5 29.7,13.1 
		29.6,13.1 29.6,13.2 30.2,16.1 30.2,16.3 30.4,16.2 33.4,15.6 33.5,15.6 	"/>
	<path class="st65" d="M37.2,13.1c-0.1-0.4-0.3-0.8-0.7-1c-0.4-0.2-0.8-0.3-1.3-0.2l-1.8,0.4l-0.1,0l0,0.1l0.6,2.9l0,0.1l0.1,0
		l1.9-0.4c0.2,0,0.5-0.1,0.7-0.3c0.2-0.1,0.3-0.3,0.4-0.4C37.2,14,37.3,13.5,37.2,13.1z M36.3,13.9c-0.1,0.2-0.3,0.3-0.5,0.3
		c0,0-0.9,0.2-1.2,0.3l-0.3-1.6l1.2-0.2c0.3-0.1,0.5,0,0.7,0.1c0.2,0.1,0.3,0.3,0.4,0.5C36.5,13.6,36.4,13.8,36.3,13.9z"/>
	<path class="st65" d="M42.8,12.7c-0.1-0.3-0.2-0.5-0.5-0.6c0.1-0.2,0.2-0.4,0.1-0.6c-0.1-0.3-0.2-0.5-0.4-0.6
		c-0.2-0.1-0.5-0.2-0.8-0.1l-2.3,0.5l-0.1,0l0,0.1l0.6,2.9l0,0.1l0.1,0l2.3-0.5c0.5-0.1,0.8-0.3,0.9-0.5
		C42.8,13.1,42.9,12.9,42.8,12.7z M41.3,11.4c0.2-0.1,0.3,0,0.3,0.1c0,0.1,0,0.1,0,0.2c0,0-0.1,0.1-0.2,0.1l-1.6,0.3l-0.1-0.4
		L41.3,11.4z M41.9,12.9c-0.1,0.1-0.2,0.1-0.3,0.1c0,0-1.2,0.3-1.6,0.3L40,12.9l1.6-0.3c0.4-0.1,0.4,0.1,0.4,0.2
		C42,12.8,42,12.9,41.9,12.9z"/>
	<polygon class="st65" points="46.5,9.5 46.2,9.6 45.6,9.7 45.5,9.8 45.5,9.8 44.6,11.2 43.3,10.3 43.3,10.2 43.2,10.2 42.5,10.4 
		42.3,10.4 42.5,10.6 44.4,12 44.6,13.1 44.6,13.2 44.8,13.2 45.3,13.1 45.4,13 45.4,12.9 45.2,11.8 46.4,9.8 	"/>
	<polygon class="st65" points="19.8,25.1 19.7,24.6 19.6,24.5 19.5,24.5 16.8,25.1 16.6,24.4 18.4,24 18.5,24 18.5,23.8 18.4,23.3 
		18.3,23.2 18.2,23.2 16.4,23.6 16.3,23 18.9,22.4 19.1,22.4 19,22.3 18.9,21.8 18.9,21.7 18.8,21.7 15.5,22.4 15.4,22.4 15.4,22.5 
		16.1,25.9 16.1,26 16.3,26 19.7,25.3 19.8,25.3 	"/>
	<polygon class="st65" points="23.2,24.4 23.1,23.9 23,23.8 22.9,23.8 20.9,24.2 20.4,22 20.4,21.9 20.3,21.9 19.7,22 19.6,22 
		19.6,22.2 20.3,25 20.3,25.2 20.4,25.1 23.1,24.6 23.2,24.5 	"/>
	<polygon class="st65" points="26.7,23.7 26.6,23.2 26.6,23 26.5,23.1 24.2,23.5 24.1,23.1 25.6,22.7 25.7,22.7 25.7,22.6 
		25.6,22.1 25.5,22 25.4,22 23.9,22.3 23.8,21.9 26,21.5 26.2,21.4 26.1,21.3 26,20.8 26,20.7 25.9,20.7 23,21.3 22.9,21.3 
		22.9,21.5 23.5,24.4 23.5,24.5 23.7,24.5 26.6,23.8 26.8,23.8 	"/>
	<polygon class="st65" points="31.3,22.7 30.7,19.8 30.7,19.7 30.6,19.7 29.8,19.9 29.7,19.9 29.7,20 28.9,21.7 27.6,20.4 
		27.6,20.3 27.5,20.4 26.7,20.5 26.6,20.6 26.6,20.7 27.2,23.6 27.2,23.7 27.3,23.7 27.9,23.6 28,23.5 28,23.4 27.6,21.4 29.1,22.8 
		29.2,23 29.3,22.8 30.1,20.9 30.5,22.9 30.6,23 30.7,23 31.2,22.9 31.4,22.8 	"/>
	<polygon class="st65" points="35.3,21.9 35.1,21.4 35.1,21.2 35,21.3 32.7,21.7 32.6,21.3 34.1,20.9 34.2,20.9 34.2,20.8 
		34.1,20.3 34,20.2 33.9,20.2 32.4,20.5 32.3,20.1 34.5,19.7 34.7,19.6 34.6,19.5 34.5,19 34.5,18.9 34.4,18.9 31.5,19.5 31.4,19.5 
		31.4,19.7 32,22.6 32,22.7 32.2,22.7 35.2,22 35.3,22 	"/>
	<polygon class="st65" points="39.2,21 38.6,18.2 38.5,18 38.4,18.1 37.9,18.2 37.7,18.2 37.8,18.3 38.2,20.4 36.1,18.6 36.1,18.6 
		36,18.6 35.2,18.7 35.1,18.8 35.1,18.9 35.7,21.8 35.7,21.9 35.8,21.9 36.4,21.8 36.5,21.7 36.5,21.6 36.1,19.6 38.2,21.3 
		38.2,21.4 38.3,21.4 39.1,21.2 39.2,21.2 	"/>
	<polygon class="st65" points="42.5,18 42.4,17.9 42.3,17.4 42.3,17.2 42.2,17.3 39,17.9 38.9,18 38.9,18.1 39,18.6 39,18.7 
		39.2,18.7 40.4,18.4 40.8,20.7 40.9,20.8 41,20.8 41.5,20.7 41.7,20.6 41.6,20.5 41.2,18.3 42.3,18 	"/>
</g>
</svg>
